<svg width="45" height="46" viewBox="0 0 45 46" fill="none" xmlns="http://www.w3.org/2000/svg">
<rect y="0.289551" width="45" height="45" rx="8" fill="url(#paint0_linear_27_388)"/>
<path fill-rule="evenodd" clip-rule="evenodd" d="M13.25 18.2896C13.25 15.6662 15.3766 13.5396 18 13.5396H28C30.6234 13.5396 32.75 15.6662 32.75 18.2896V28.2896C32.75 30.9129 30.6234 33.0396 28 33.0396H18C15.3766 33.0396 13.25 30.9129 13.25 28.2896V18.2896ZM18 15.0396C16.2051 15.0396 14.75 16.4946 14.75 18.2896V28.2896C14.75 30.0845 16.2051 31.5396 18 31.5396H28C29.7949 31.5396 31.25 30.0845 31.25 28.2896V18.2896C31.25 16.4946 29.7949 15.0396 28 15.0396H18Z" fill="white"/>
<path fill-rule="evenodd" clip-rule="evenodd" d="M18.25 23.2896C18.25 20.6662 20.3766 18.5396 23 18.5396C25.6234 18.5396 27.75 20.6662 27.75 23.2896C27.75 25.9129 25.6234 28.0396 23 28.0396C20.3766 28.0396 18.25 25.9129 18.25 23.2896ZM23 20.0396C21.2051 20.0396 19.75 21.4946 19.75 23.2896C19.75 25.0845 21.2051 26.5396 23 26.5396C24.7949 26.5396 26.25 25.0845 26.25 23.2896C26.25 21.4946 24.7949 20.0396 23 20.0396Z" fill="white"/>
<path d="M28.5 18.7896C29.0523 18.7896 29.5 18.3419 29.5 17.7896C29.5 17.2373 29.0523 16.7896 28.5 16.7896C27.9477 16.7896 27.5 17.2373 27.5 17.7896C27.5 18.3419 27.9477 18.7896 28.5 18.7896Z" fill="white"/>
<defs>
<linearGradient id="paint0_linear_27_388" x1="0" y1="45.2895" x2="45" y2="45.2895" gradientUnits="userSpaceOnUse">
<stop stop-color="#73E0A9"/>
<stop offset="1" stop-color="#5B68DF"/>
</linearGradient>
</defs>
</svg>
