<svg width="45" height="46" viewBox="0 0 45 46" fill="none" xmlns="http://www.w3.org/2000/svg">
<rect y="0.289551" width="45" height="45" rx="8" fill="url(#paint0_linear_27_394)"/>
<path d="M31.7097 14.944C31.7097 14.944 33.6523 14.1865 33.4904 16.0262C33.4365 16.7837 32.9508 19.435 32.573 22.3027L31.278 30.7975C31.278 30.7975 31.17 32.0419 30.1987 32.2584C29.2273 32.4748 27.7704 31.5009 27.5005 31.2845C27.2847 31.1222 23.4534 28.6873 22.1043 27.497C21.7265 27.1723 21.2948 26.523 22.1582 25.7655L27.8244 20.3548C28.4719 19.7055 29.1194 18.1905 26.4213 20.0302L18.8666 25.1704C18.8666 25.1704 18.0032 25.7114 16.3843 25.2245L12.8767 24.1423C12.8767 24.1423 11.5816 23.3307 13.7941 22.5191C19.1904 19.976 25.8278 17.3789 31.7097 14.944Z" fill="white"/>
<defs>
<linearGradient id="paint0_linear_27_394" x1="0" y1="45.2895" x2="45" y2="45.2895" gradientUnits="userSpaceOnUse">
<stop stop-color="#73E0A9"/>
<stop offset="1" stop-color="#5B68DF"/>
</linearGradient>
</defs>
</svg>
