<svg width="45" height="46" viewBox="0 0 45 46" fill="none" xmlns="http://www.w3.org/2000/svg">
<rect y="0.289551" width="45" height="45" rx="8" fill="url(#paint0_linear_27_397)"/>
<path fill-rule="evenodd" clip-rule="evenodd" d="M30.1683 15.9749C29.6902 15.3194 29.1159 14.8105 28.4383 14.4783C27.6735 14.1035 26.8237 13.9766 25.9147 14.0679C24.4473 14.2154 23.4224 15.0336 22.8369 16.2348C22.3368 17.2608 22.1624 18.546 22.2222 19.9216C20.8576 20.4501 19.6536 20.1639 18.5864 19.4826C17.3656 18.7033 16.3504 17.4131 15.6364 16.2491C15.4791 15.9928 15.184 15.8552 14.8866 15.8995C14.5892 15.9438 14.347 16.1614 14.2713 16.4524C13.7715 18.3724 13.2362 20.8526 14.2971 23.6087C14.9048 25.1872 16.1822 26.4997 18.0175 27.5824C16.1934 28.4005 14.7477 28.6449 13.6404 28.4339C13.2784 28.3649 12.9198 28.5692 12.7946 28.9158C12.6694 29.2624 12.8146 29.6487 13.1371 29.827C13.1599 29.8396 13.1862 29.8542 13.2159 29.8708C13.8149 30.2041 15.7969 31.3072 18.2558 31.9847C20.8172 32.6904 24.0598 32.9792 26.8073 31.2626C31.9024 28.0792 31.8682 22.6842 31.8519 20.1153C31.8515 20.0468 31.8511 19.9804 31.8508 19.916C31.9216 19.793 32.0094 19.6654 32.1228 19.5037C32.1282 19.4961 32.1336 19.4884 32.1391 19.4806C32.2855 19.2718 32.466 19.0145 32.632 18.7001C32.9906 18.0209 33.25 17.1403 33.25 15.7614C33.25 15.4635 33.0736 15.1938 32.8007 15.0743C32.5277 14.9549 32.2099 15.0083 31.9911 15.2105C31.2882 15.8597 30.6965 16.0508 30.1683 15.9749ZM27.7781 15.8252C27.3002 15.591 26.7377 15.4928 26.0647 15.5604C25.159 15.6514 24.5633 16.1164 24.1853 16.892C23.7862 17.7108 23.6294 18.893 23.7512 20.3295C23.7771 20.6342 23.6153 20.9241 23.3424 21.0622C21.2322 22.1293 19.3171 21.7287 17.7793 20.747C16.8297 20.1408 16.0165 19.3119 15.3536 18.4688C15.1022 19.897 15.0657 21.4298 15.697 23.0698C16.2463 24.4966 17.6061 25.8034 19.9824 26.9234C20.2382 27.044 20.4044 27.2981 20.4124 27.5807C20.4203 27.8634 20.2686 28.1265 20.0201 28.2612C18.7256 28.9628 17.5094 29.4682 16.3812 29.7491C17.0555 30.0298 17.8265 30.3105 18.6542 30.5386C21.0656 31.2029 23.7958 31.3755 26.0125 29.9905C30.3781 27.2628 30.3609 22.6756 30.3512 20.0747C30.3507 19.9564 30.3503 19.8422 30.3503 19.7325C30.3503 19.6207 30.3753 19.5103 30.4234 19.4094C30.5652 19.1124 30.7426 18.8594 30.89 18.6492L30.8954 18.6415C31.0505 18.4203 31.1842 18.2296 31.3055 17.9998C31.4101 17.8018 31.5118 17.5621 31.5915 17.2484C30.9254 17.5199 30.2246 17.5756 29.5028 17.3599C29.3334 17.3093 29.1873 17.2005 29.0903 17.0527C28.6984 16.4551 28.2575 16.0602 27.7781 15.8252Z" fill="white"/>
<defs>
<linearGradient id="paint0_linear_27_397" x1="0" y1="45.2895" x2="45" y2="45.2895" gradientUnits="userSpaceOnUse">
<stop stop-color="#73E0A9"/>
<stop offset="1" stop-color="#5B68DF"/>
</linearGradient>
</defs>
</svg>
