<svg width="45" height="46" viewBox="0 0 45 46" fill="none" xmlns="http://www.w3.org/2000/svg">
<rect y="0.289551" width="45" height="45" rx="8" fill="url(#paint0_linear_27_400)"/>
<path d="M16.5317 16.4968L16.4944 15.7477L16.4944 15.7477L16.5317 16.4968ZM29.4684 16.4968L29.5057 15.7477L29.5057 15.7477L29.4684 16.4968ZM32.3087 19.2432L33.0561 19.1807L33.0561 19.1807L32.3087 19.2432ZM32.304 27.3157L33.0513 27.3787V27.3787L32.304 27.3157ZM29.5104 30.057L29.4614 29.3086L29.4614 29.3086L29.5104 30.057ZM16.4898 30.0571L16.4408 30.8055L16.4409 30.8055L16.4898 30.0571ZM13.6963 27.3171L14.4436 27.2537L13.6963 27.3171ZM13.6916 19.2418L12.9442 19.1789L12.9442 19.1789L13.6916 19.2418ZM16.569 17.2458C19.3363 17.1079 21.4776 17.0396 22.9989 17.0396V15.5396C21.4405 15.5396 19.2703 15.6093 16.4944 15.7477L16.569 17.2458ZM22.9989 17.0396C24.5203 17.0396 26.6624 17.1079 29.4311 17.2459L29.5057 15.7477C26.7284 15.6094 24.5575 15.5396 22.9989 15.5396V17.0396ZM29.4311 17.2459C30.5569 17.302 31.4674 18.1824 31.5613 19.3056L33.0561 19.1807C32.8996 17.3086 31.382 15.8412 29.5057 15.7477L29.4311 17.2459ZM31.5613 19.3056C31.6869 20.8079 31.7489 22.1224 31.7489 23.2515H33.2489C33.2489 22.0701 33.1841 20.7124 33.0561 19.1807L31.5613 19.3056ZM31.7489 23.2515C31.7489 24.3944 31.6854 25.7273 31.5567 27.2526L33.0513 27.3787C33.1825 25.8238 33.2489 24.4473 33.2489 23.2515H31.7489ZM31.5567 27.2526C31.4631 28.3619 30.5723 29.236 29.4614 29.3086L29.5593 30.8054C31.4108 30.6843 32.8953 29.2275 33.0513 27.3787L31.5567 27.2526ZM29.4614 29.3086C27.1038 29.4628 24.9499 29.5396 22.9989 29.5396V31.0396C24.9884 31.0396 27.1755 30.9613 29.5593 30.8054L29.4614 29.3086ZM22.9989 29.5396C21.0481 29.5396 18.895 29.4628 16.5387 29.3087L16.4409 30.8055C18.8234 30.9613 21.0097 31.0396 22.9989 31.0396V29.5396ZM16.5388 29.3087C15.4283 29.2361 14.5377 28.3625 14.4436 27.2537L12.949 27.3804C13.1058 29.2285 14.59 30.6844 16.4408 30.8055L16.5388 29.3087ZM14.4436 27.2537C14.3132 25.7165 14.2489 24.3833 14.2489 23.2515H12.7489C12.7489 24.4372 12.8162 25.8144 12.949 27.3804L14.4436 27.2537ZM14.2489 23.2515C14.2489 22.1332 14.3117 20.8185 14.439 19.3046L12.9442 19.1789C12.8146 20.7216 12.7489 22.08 12.7489 23.2515H14.2489ZM14.439 19.3046C14.5333 18.1818 15.4437 17.3019 16.569 17.2458L16.4944 15.7477C14.6188 15.8412 13.1015 17.3076 12.9442 19.1789L14.439 19.3046Z" fill="white"/>
<path d="M22.1649 25.8501L21.7514 25.2244L21.7512 25.2245L22.1649 25.8501ZM25.4637 23.6698L25.8772 24.2955L25.8772 24.2955L25.4637 23.6698ZM25.5849 23.076L26.2106 22.6624L26.2106 22.6624L25.5849 23.076ZM25.4665 22.9566L25.048 23.579L25.0482 23.5791L25.4665 22.9566ZM22.1677 20.7385L22.5862 20.1161L22.5862 20.1161L22.1677 20.7385ZM21.5729 20.855L20.9505 20.4365L20.9504 20.4368L21.5729 20.855ZM20.75 21.0941V25.4926H22.25V21.0941H20.75ZM20.75 25.4926C20.75 26.1434 21.2777 26.6711 21.9285 26.6711V25.1711C22.1061 25.1711 22.25 25.315 22.25 25.4926H20.75ZM21.9285 26.6711C22.1596 26.6711 22.3857 26.6032 22.5786 26.4757L21.7512 25.2245C21.8039 25.1896 21.8656 25.1711 21.9285 25.1711V26.6711ZM22.5784 26.4758L25.8772 24.2955L25.0502 23.0441L21.7514 25.2244L22.5784 26.4758ZM25.8772 24.2955C26.4203 23.9366 26.5694 23.2054 26.2106 22.6624L24.9592 23.4895C24.8614 23.3415 24.902 23.1421 25.0502 23.0441L25.8772 24.2955ZM26.2106 22.6624C26.1249 22.5328 26.0142 22.4211 25.8848 22.3341L25.0482 23.5791C25.0127 23.5553 24.9825 23.5248 24.9592 23.4896L26.2106 22.6624ZM25.885 22.3342L22.5862 20.1161L21.7492 21.3609L25.048 23.579L25.885 22.3342ZM22.5862 20.1161C22.046 19.7529 21.3137 19.8964 20.9505 20.4365L22.1953 21.2735C22.0963 21.4208 21.8966 21.46 21.7492 21.3609L22.5862 20.1161ZM20.9504 20.4368C20.8199 20.631 20.75 20.8598 20.75 21.0941H22.25C22.25 21.1582 22.2309 21.2205 22.1954 21.2733L20.9504 20.4368Z" fill="white"/>
<defs>
<linearGradient id="paint0_linear_27_400" x1="0" y1="45.2895" x2="45" y2="45.2895" gradientUnits="userSpaceOnUse">
<stop stop-color="#73E0A9"/>
<stop offset="1" stop-color="#5B68DF"/>
</linearGradient>
</defs>
</svg>
